<svg xmlns="http://www.w3.org/2000/svg" width="359" height="315" fill="none">
  <path fill="#081C59" d="M260.1 24.8h-1.3V34h1.3v-9.2Z"/>
  <path fill="#081C59" d="M264.1 28.7H255V30h9.2v-1.3ZM271.6 0h-1.9v13.9h2V0Z"/>
  <path fill="#081C59" d="M277.6 6h-13.9v2h14V6ZM315.2 71h-1.4v10.6h1.4V71Z"/>
  <path fill="#081C59" d="M319.8 75.6h-10.6V77h10.6v-1.5Z"/>
  <path fill="#E5E5FF" d="M152.6 46.9a17.1 17.1 0 1 0-24.2-24.2 17.1 17.1 0 0 0 24.2 24.2ZM181.4 260.7a19.3 19.3 0 1 0 0-38.5 19.3 19.3 0 0 0 0 38.5Z" opacity=".4"/>
  <path fill="#081C59" d="M145.7 269.7h-.6v-.5l2.7-.1v.6h-2.1Zm-3.4-.1-2.8-.4.1-.5 2.7.3v.6Zm8.4-.2-.1-.6c.9 0 1.8-.2 2.7-.4l.1.5-2.7.5Zm-14-.8-2.6-.7.2-.6 2.6.8-.1.5Zm19.4-.4-.1-.5 2.6-.9.2.5-2.7 1Zm-24.6-1.3-2.6-1.2.3-.5 2.5 1.2-.2.5Zm29.8-.6-.2-.6 2.5-1.2.2.5-2.5 1.3Zm-34.8-2-2.4-1.5.4-.4 2.3 1.5-.3.5Zm39.7-.8-.3-.5 2.2-1.6.4.5-2.3 1.6Zm-44.3-2.4-2-1.9.3-.4 2 1.9-.3.4Zm48.7-1-.4-.4 2-2 .4.4-2 2Zm-52.7-3-1.7-2 .4-.4 1.7 2.1-.4.4Zm56.5-1.1-.4-.4a37 37 0 0 0 1.7-2.2l.4.4c-.5.7-1 1.5-1.7 2.2Zm-59.8-3.3-1.5-2.4.5-.2 1.4 2.3-.4.3Zm63-1.3-.4-.3 1.3-2.4.5.2-1.4 2.5Zm-65.7-3.6-1-2.6.5-.1 1 2.5-.5.2Zm68.2-1.4-.5-.2.9-2.6.5.1-1 2.7Zm-70-3.8c-.3-1-.6-1.8-.7-2.8h.5l.6 2.6-.5.2Zm71.6-1.6h-.5l.5-2.8h.6c-.2 1-.3 2-.6 2.8Zm-72.8-4-.2-2.7h.6c0 .9 0 1.8.2 2.7h-.6Zm73.7-1.5h-.6l.1-2.8h.6l-.1 2.8Zm-.5-3.2-.1-2.7h.6v2.7h-.5Zm-72.8-.8h-.6c0-1 0-1.9.2-2.8h.5a37 37 0 0 0-.1 2.8Zm72.4-4.6-.6-2.7.6-.2.5 2.8h-.5Zm-71.9-.8-.5-.2.6-2.7.5.2-.6 2.7Zm70.6-4.6-1-2.6.5-.2 1 2.6-.5.2Zm-69.1-.8-.6-.2 1-2.6.6.3a36 36 0 0 0-1 2.5Zm67-4.3L177 214l.4-.3 1.4 2.5-.5.2Zm-64.8-.7-.5-.3 1.4-2.4.4.3c-.5.8-1 1.6-1.3 2.4Zm62-4-1.7-2.2.4-.3 1.7 2.2-.4.3Zm-59.1-.7-.5-.3 1.8-2.2.4.4a37 37 0 0 0-1.7 2.1Zm55.6-3.5-2-2 .3-.4 2 2-.3.4Zm-52-.6-.4-.4 2-2 .4.5-2 1.9Zm47.9-3.1-2.3-1.6.3-.5 2.3 1.6-.3.5Zm-43.7-.5-.3-.5 2.3-1.5.3.4-2.3 1.6Zm39-2.5-2.4-1.3.2-.5 2.5 1.3-.3.5Zm-34.3-.4-.3-.5a37 37 0 0 1 2.5-1.2l.2.5-2.4 1.2Zm29.3-2-2.6-.8.2-.5 2.6.9-.2.5Zm-24.3-.2-.2-.5a37 37 0 0 1 2.7-.8l.1.5-2.6.8Zm19-1.2-2.7-.5v-.5l2.8.4v.6Zm-13.7-.2v-.5l2.7-.4v.6l-2.7.3Zm8.3-.5h-2.8v-.6h2.8v.6ZM115.6 50.2v-.6c1 0 1.8 0 2.7-.2l.1.6-2.8.2Zm-2.8-.2c-1 0-1.8-.2-2.8-.4l.2-.6 2.7.5v.5Zm8.4-.5-.2-.6c1-.2 1.8-.5 2.6-.8l.2.5c-.8.4-1.7.6-2.6.9Zm-13.8-.7c-1-.4-1.8-.7-2.6-1.2l.2-.5c.8.5 1.7.8 2.5 1.1l-.1.6Zm19-1.4-.3-.4 2.4-1.5.3.5-2.4 1.4Zm-24-1.2c-.8-.5-1.6-1-2.3-1.7l.4-.4 2.2 1.7-.3.4Zm28.6-2-.4-.4 2-2 .4.4-2 2ZM98 42.6l-1.7-2.2.4-.4 1.7 2.2-.4.4Zm36.6-2.6-.5-.3c.6-.7 1-1.5 1.5-2.3l.4.2-1.4 2.4Zm-39.8-2c-.5-.8-.9-1.7-1.2-2.6l.5-.2 1.1 2.5-.4.3Zm42.4-3-.5-.1.8-2.7.5.2-.8 2.7Zm-44.5-2.2-.6-2.8h.6l.5 2.6-.5.2Zm45.8-3.2h-.5a23 23 0 0 0 .1-3.6h.6a24 24 0 0 1-.2 3.6ZM92 27.2a25 25 0 0 1 .1-2.8h.6a23.2 23.2 0 0 0-.1 2.8H92Zm46-4-.6-2.6.5-.2c.3 1 .5 1.8.6 2.8h-.5ZM93 21.8l-.5-.1.8-2.7.5.1-.8 2.7Zm43.4-3.8-1.2-2.5.4-.2c.5.8 1 1.6 1.3 2.5l-.5.2ZM95 16.6l-.5-.2 1.4-2.5.4.3c-.5.8-1 1.6-1.3 2.4Zm38.8-3.4a23 23 0 0 0-1.8-2l.4-.5 1.8 2.2-.4.3ZM98 12.1l-.4-.4 1.9-2 .4.4a23 23 0 0 0-2 2Zm32-2.8a23 23 0 0 0-2.2-1.7l.3-.4 2.3 1.6-.4.5Zm-28-1-.3-.4c.7-.6 1.5-1 2.3-1.5l.3.5-2.3 1.4Zm23.4-2c-.8-.4-1.7-.8-2.5-1l.2-.6 2.5 1-.2.6Zm-18.6-.6-.2-.5 2.6-1 .2.6c-1 .2-1.8.5-2.6.9Zm13.4-1.2a23 23 0 0 0-2.7-.4v-.6l2.8.4v.6Zm-8.2-.3v-.5c.9-.2 1.8-.2 2.8-.3V4c-1 0-1.9 0-2.8.2ZM22.2 169.6a8 8 0 1 1 0-16 8 8 0 0 1 0 16Zm0-15a7 7 0 1 0 0 14 7 7 0 0 0 0-14Z"/>
  <path fill="#fff" d="M291.5 66.2H60.7v170.6h230.8V66.2Z"/>
  <path fill="#081C59" d="M292 237.4H60.2V65.6h232v171.8Zm-230.7-1.1H291V66.7H61.3v169.6Z"/>
  <path fill="#F28500" d="M95.6 181.4h-19V218h19v-36.6ZM125.6 163.2h-19V218h19v-54.8ZM155.6 125.6h-19V218h19v-92.4ZM185.5 152.3h-18.8V218h18.8v-65.7ZM215.5 123.3h-18.8V218h18.8v-94.7ZM245.5 128.3h-18.9V218h19v-89.7ZM275.5 95.5h-18.9V218h19V95.5Z"/>
  <path fill="#fff" d="m82.4 203.5-.5-1 31.5-16L146 142l29.8 31.2 30.6-30.6 29.7 3.6 29.8-34.2.9.7-30.2 34.7-29.8-3.7-31 31-29.6-31-32 43.5-31.7 16.2Z"/>
  <path fill="#081C59" d="M222.6 87.3h-93v1h93v-1ZM191.2 99.5H161v1h30.2v-1ZM57 269.5c1.8-9.6.6-19.7-3.3-28.5a44.7 44.7 0 0 0-18.8-20.7 34 34 0 0 1 5.6 19.1c.4 6.8.4 13.8 2.9 20 2.4 6.4 8.2 11.8 14.6 11l-1-1Z"/>
  <path fill="#081C59" d="M57.1 271.9a48.4 48.4 0 0 1 3.3-28.5c4-8.8 10.6-16.2 18.7-20.7a34 34 0 0 0-5.5 19.1c-.5 6.8-.4 13.8-2.9 20.1-2.5 6.3-8.3 11.7-14.6 11l1-1Z"/>
  <path fill="#F28500" d="M49.8 267.3a30 30 0 0 1-3-23.3 27.9 27.9 0 0 1 14.8-17.5c-1.5 9.8 5.8 19.3 4.5 29A16.1 16.1 0 0 1 54.6 269l-4.8-1.6Z"/>
  <path fill="#081C59" d="M52.8 280.5c0-9.8 3.3-19.5 9.4-27.3 6-7.8 14.8-13.7 24.5-16.4-5.5 4.2-8 11-10 17.6-1.8 6.6-3.2 13.5-7.1 19.1-4 5.6-11.4 9.8-18.1 7.7l1.3-.7Z"/>
  <path fill="#081C59" d="M55.9 281c0-9.8-3.1-19.5-8.7-27.3a43.8 43.8 0 0 0-22.5-16.4 33 33 0 0 1 9.2 17.6c1.6 6.6 3 13.5 6.5 19.1 3.7 5.7 10.5 9.8 16.7 7.7l-1.2-.7Z"/>
  <path fill="#fff" d="M72.2 314.2H37l-6-36.6h47.3l-6.1 36.6Z"/>
  <path fill="#081C59" d="M72.6 314.6h-36l-6.1-37.4h48.2l-6.1 37.4Zm-35.2-.8h34.4l6-35.8H31.5l5.9 35.8Z"/>
  <path fill="#fff" d="M118.8 38H11.6v84.2h107.2V38Z"/>
  <path fill="#081C59" d="M119.4 122.8H11V37.4h108.4v85.4Zm-107.2-1.2h106v-83h-106v83Z"/>
  <path fill="#F28500" d="M50.3 51.8H26.2v13.7h24.1V51.8Z"/>
  <path fill="#081C59" d="M104.5 53.1h-44v.6h44V53Z"/>
  <path fill="#F28500" d="M104.5 58.3h-44v.6h44v-.6ZM104.5 63.6h-44v.6h44v-.6ZM42.6 92.8h-5v15.6h5V92.8Z"/>
  <path fill="#081C59" d="M47.6 85.2h-5v23.2h5V85.2Z"/>
  <path fill="#F28500" d="M61.4 82.5h-5v25.8h5V82.5Z"/>
  <path fill="#081C59" d="M66.5 98.8h-5v9.5h5v-9.5Z"/>
  <path fill="#F28500" d="M80.3 90.6h-5.1v17.8h5V90.6Z"/>
  <path fill="#081C59" d="M85.3 86.6h-5v21.8h5V86.6Z"/>
  <path fill="#F28500" d="M99 95.8h-5v12.5h5V95.8Z"/>
  <path fill="#081C59" d="M104.1 78.6h-5v29.7h5V78.6Z"/>
  <path fill="#081C59" d="M104.1 108.6H26.4V77.2h.6V108H104v.6Z"/>
  <path fill="#1B1B43" d="m326.2 299.2 3.4 14.9h-22.7l9.5-8.2-.7-7.4 10.5.7Z"/>
  <path fill="#EBEBFF" d="m316.6 305.5-.5.7 3.8 3.1.5-.6-3.8-3.2Z"/>
  <path fill="#1B1B43" d="m281.7 299 1.6 15H259l11.1-8.1v-7.5l11.6.5Z"/>
  <path fill="#EBEBFF" d="m270.4 305.5-.5.7 3.7 3.1.6-.6-3.8-3.2Z"/>
  <path fill="#081C59" d="M330.3 301h-3.6l-10.8.2H310a1313.2 1313.2 0 0 1-18.3-69.4 422.6 422.6 0 0 1-8-50.5l26.6 4.4.8 7.7c4 34.4 10.9 70.5 19.2 107.6Z"/>
  <path fill="#081C59" d="m296.1 185-.8 9-3.4 36.5-.2 1.3-6.4 69.2h-20c.5-40 1.8-78 7-106.1l1.2-6 10.6-1.9 12-2Z"/>
  <path fill="#000" d="m287.4 206-.6.2 7.6 39h.6l-7.6-39.1Z"/>
  <path fill="#1B1B43" d="m311.1 193.4-15.8.6-10.3.4-12.7.5 1.2-6 10.6-1.9-.5-5.7 26.7 4.4.8 7.7Z" opacity=".3"/>
  <path fill="#FFA121" d="m281.5 143.3 10.2-1.3 21.3 4.5.1 38.4a3.8 3.8 0 0 1-3.8 3.8l-35.8.1-6.8-20.8 6.6-19.6 8.2-5.1Z"/>
  <path fill="#1B1B43" d="M294.2 151.7c-2.2 0-4.3-.8-6-2.4l.3-.3c3.2 3 8.1 3 11.8 0l.3.3c-2 1.6-4.2 2.4-6.4 2.4Z"/>
  <path fill="#FFA121" d="M317 149.4a8.6 8.6 0 0 0-7.2-6.7l-13.6-1.8 8.2 14 2.6 8.8 12.8-1.8-2.8-12.5Z"/>
  <path fill="#FFBC96" d="M322.6 177c-.4 4.7-3.2 6.8-6.9 7.6-3.8.9-8.5.4-12 .4-5.7 0-11.4-.2-17.2-.5l-14.5.1-1.7-2.6c1.9-2.6 7-6.2 16-4l23.3-5.3-2.6-9 12.8-1.8 2.6 11.9c.2 1.2.2 2.2.2 3.2ZM260 167.3l9.2 11.5 1.6.4 1.4-13.4-9.4-4.4-2.8 5.9Z"/>
  <path fill="#FFA121" d="m290.6 140.8-13.4 2c-3.7.7-7 3-8.5 6.4l-5.9 12.2 9.4 4.4 1-9.6 17.4-15.4Z"/>
  <path fill="#FE5B52" d="M322.6 177c-.4 4.7-3.2 6.8-6.9 7.6a5.2 5.2 0 0 1 6.9-7.6Z" opacity=".2"/>
  <path fill="#1B1B43" d="m273 156.1-3 26h.5l3-26h-.5ZM304.7 154.9h-.4l5 17.9.5-.2-5.1-17.7ZM299.2 110.4c0-1 0-2 .3-2.9a4 4 0 0 1 1.7-2.2 4 4 0 0 1 1.4-.5h1.4c1 0 2 .4 2.7 1 .9.4 1.6 1.2 2 2 .4 1 .5 2 .2 3a6 6 0 0 1-1.4 2.4l-2.3 1.7v-.1c.7-.6 1.4-1.1 2-1.8.7-.7 1.2-1.5 1.4-2.4.2-.8.1-1.8-.3-2.6a5 5 0 0 0-1.8-2 6 6 0 0 0-2.5-.9c-.9-.1-1.8 0-2.6.5-.8.4-1.4 1.2-1.6 2l-.4 1.4v1.4h-.2Z"/>
  <path fill="#1B1B43" d="M303.8 115a4.5 4.5 0 1 0 0-8.9 4.5 4.5 0 0 0 0 9Z"/>
  <path fill="#1B1B43" d="m307.1 135.2-2.3-3.6.9 4-8.3 2.2-15.4.6 1.2-12.3c-4-2-6.8-14.5 8.3-16.6 2.7-.4 5.5-.1 8 1 7.7 3.2 10.3 11.9 11 23.8l-3.4 1Z"/>
  <path fill="#FFBC96" d="M294.3 148.2a6 6 0 0 1-6-6V129h12v13a6 6 0 0 1-6 6.1Z"/>
  <path fill="#1B1B43" d="M296.4 134.6c-1.3 3.8-4.3 5.6-8.2 6.5v-5.7l8.2-.8Z"/>
  <path fill="#FFBC96" d="m300 116.3-.3 17s-7.2 5.2-12.2 3.7c-1.6-.5-2.8-2.4-3.6-4.8l-.8-3.6c-.8-4.4-.8-9-.8-9l17.8-3.3Z"/>
  <path fill="#1B1B43" d="M285.5 126.8c0 .5-.3.9-.7.9-.4 0-.7-.4-.7-1 0-.4.3-.8.7-.8.4 0 .7.4.7.9ZM290 127.4c.3 0 .7-.4.7-1s-.4-1-.8-1-.7.4-.7 1 .3 1 .7 1ZM292.4 124.2c0 .3-.9.3-1.8.2-1-.2-1.8-.2-1.7-.8.2-.5 1-.5 1.9-.3 1 .2 1.6.7 1.6 1ZM283 124.8c0 .3.8.2 1.6 0 .8-.3 1.5-.3 1.3-.9-.1-.5-.7-.4-1.6-.2-.8.3-1.3.9-1.3 1.1Z"/>
  <path fill="#FE5B52" d="M295.7 128.6a2 2 0 1 1-4 0 2 2 0 0 1 4 0ZM284.8 130.6a2 2 0 0 1-.9 1.6l-.8-3.6a2 2 0 0 1 1.7 2Z" opacity=".2"/>
  <path fill="#1B1B43" d="M287 127.6v.5l-.3.4-.4.7v.3l.1.3.7.4v.2c-.3 0-.7 0-1-.3a1 1 0 0 1-.4-1l.6-.9.5-.6h.2Z"/>
  <path fill="#fff" d="M286.5 132c.7 2.4 3.9 1.2 4-1l-4 1Z"/>
  <path fill="#1B1B43" d="M281.7 122.3c5.3 0 9.7-.5 13.8-2.5.4 3.4 1.9 5 3.9 6l4.1-3.5-2.1-7-11.3-.6-8.8 4.3.4 3.3Z"/>
  <path fill="#FFBC96" d="M302.7 128.3c1-1.7 1-3.6 0-4.4-1.1-.8-3 0-4 1.5-1.2 1.6-1.2 3.5-.1 4.3 1.1.8 3 .2 4-1.4Z"/>
  <path fill="#1B1B43" d="M299.7 128c-.1-.3-.2-.6-.1-1l.3-.8c.2-.3.5-.5.8-.6l.9-.2v.2l-.7.4a2 2 0 0 0-.5.5l-.4.7-.1.8h-.2Z"/>
  <path fill="#FFA121" d="m305.2 114.8-1.6-1-1.4-1.2a46.8 46.8 0 0 0-2.9-2.2 4 4 0 0 1 2 .3c.6.2 1.1.6 1.6 1a8.1 8.1 0 0 1 2.3 3.1Z"/>
  <path fill="#1B1B43" d="M285.5 184.5h-14.8v4.4h14.8v-4.4Z"/>
  <path fill="#EBEBFF" d="M275.5 188.9H242l-14.6-31.6h33.3l14.7 31.6Z"/>
  <path fill="#FFBC96" d="M263.1 187.5c-.7.1-1.2.8-1.2 1.5v-3.4c0-.7-.5-1.3-1.2-1.4-.8-.1-1.5.5-1.5 1.2v-1.3c0-.7-.5-1.4-1.2-1.5-.8 0-1.5.6-1.5 1.4v1.4c0-.7-.7-1.3-1.5-1.2-.7 0-1.2.7-1.2 1.4v2.7c0-.7-.6-1.6-1.3-1.6-1.5-.2-1.1 2.5-1.1 2.5.4 2.6 1.2 3 2.8 3 2.4.2 5 .2 7.5 0 1.6 0 1.8-.3 2.5-2.6.3-1 0-2.3-1-2.1Z"/>
  <path fill="#D28572" d="M253.8 186.4a10.7 10.7 0 0 1 .1 3.4h-.1a6.8 6.8 0 0 1-.2-1.7v-1.7h.2ZM256.6 185.4a12 12 0 0 1 0 3.6 7.6 7.6 0 0 1-.3-1.8l.1-1.8h.2ZM259.3 185.4a10.8 10.8 0 0 1 .1 3.4h-.2a6.9 6.9 0 0 1-.2-1.6v-1.8h.3ZM262.7 187.7l-.3.5-.2.6-.2.6-.3.7h-.2l.1-.8a4.9 4.9 0 0 1 .5-1.3l.5-.5.1.2Z"/>
  <path fill="#fff" d="M332 116.4v15.3l-7.1 5H358v-20.3h-26.2Z"/>
  <path fill="#081C59" d="M358.4 137H324l7.6-5.5v-15.4h26.8V137Zm-32.7-.6h32.1v-19.7h-25.6v15l-6.5 4.7Z"/>
  <path fill="#081C59" d="m344.6 132-4.2-4.2.7-.8 3.3 3.1 5.4-10 1 .5-6.2 11.3Z"/>
  <path fill="#1B1B43" d="M359 313.8H0v.8h359v-.8Z"/>
</svg>
