<svg xmlns="http://www.w3.org/2000/svg" width="338" height="338" fill="none">
  <path fill="#DBDADA" d="m305.4 233-27.7-10.5a3.7 3.7 0 0 1-2.2-4.8l14.6-38.3a3.7 3.7 0 0 1 4.8-2.2l17.6 6.7 8.3 19.2-10.6 27.8a3.7 3.7 0 0 1-4.8 2.2Z"/>
  <path fill="#E0E0E0" d="m312.5 183.9-4.1 10.8a3.4 3.4 0 0 0 2 4.5l10.4 4-8.3-19.3Z"/>
  <path fill="#B19494" d="M306.2 193.4c0 .1-3-.9-6.5-2.2a42.8 42.8 0 0 1-6.3-2.7c0-.2 3 .8 6.5 2.2 3.6 1.3 6.4 2.5 6.3 2.7ZM312.2 202.6c0 .2-4.8-1.5-10.7-3.7a122 122 0 0 1-10.4-4.3c0-.1 4.8 1.5 10.6 3.8 5.9 2.2 10.5 4.1 10.5 4.2ZM312.1 208.5l-11.6-4.2c-6.3-2.4-11.4-4.5-11.4-4.6.1-.1 5.3 1.7 11.6 4.1a145 145 0 0 1 11.4 4.7ZM310.3 213.3c0 .1-5.2-1.7-11.6-4.1-6.3-2.5-11.5-4.5-11.4-4.7 0-.1 5.2 1.7 11.6 4.2 6.4 2.4 11.5 4.4 11.4 4.6ZM308.5 218c0 .2-5.3-1.6-11.6-4-6.4-2.5-11.5-4.5-11.4-4.7 0-.1 5.2 1.7 11.6 4.1 6.3 2.5 11.4 4.5 11.4 4.7ZM306.6 222.9c0 .1-5.2-1.7-11.5-4.1-6.4-2.5-11.5-4.5-11.5-4.7.1-.1 5.3 1.7 11.6 4.2 6.4 2.4 11.5 4.4 11.4 4.6Z"/>
  <path fill="#969696" d="M174.1 110a59.2 59.2 0 0 0-.2-2.6l.2 2.6ZM167.4 120.4c-.8-1.7-1-3.5-1.4-5.2a3.4 3.4 0 0 0-1.6-2.3l-1.8-.5c-2.2-.6-2.8-3.7-5-4.6a7 7 0 0 0-2-.5c-2.8-.3-5.7-1.3-7.4-3.5l-1.7-2c-.8-.7-1.9-1-2.6-.3l1.8 3.5c.4 1 1.1 2 2 3a3.1 3.1 0 0 0 3.2.6c.3-.2.7-.4 1.1-.4.3 0 .6.2.7.5 1.6 1.7 1 4.4-.4 6.2a14.1 14.1 0 0 1-5.8 3.4c-.7.4-1.5.5-2.3.5-1.5-.3-2.3-1.9-2.7-3.3-1-3.2-1.4-6.6-3.4-9.3-.7-.7-1.3-1.6-1.8-2.5-.4-1-.3-2.3-.9-3.3-.6-.9-2-1.5-2.2-2.7a2.1 2.1 0 0 1 1.4-1.9l2.4-.7c.3-.2.7-.4.7-.7 0-.5-.7-.7-1-1.2-.1-.5.4-1 .7-1.5.4-1.1-.8-2.3-2-2.8-1.1-.4-2.5-.8-3-2l-.4-1.6a3.7 3.7 0 0 0-2.8-3c-1.4-.3-3 1-2.8 2.5.2.7.8 1.3 1 2 .4.8.3 1.9-.4 2.1-1.3.4-2.5-1.9-3.5-1.1l1.3 4.4c-1.7.8-3.6-.7-4.3-2.4-.7-1.7-.7-3.6-1.5-5.3-.9-1.6-3-2.8-4.5-1.6 0 2 2.7 2.9 4 4.6.8 1.2.7 3.2-.6 4-1.3.8-3.4-.6-2.9-2 .2-.5.6-1 .6-1.5 0-.7-.5-1.2-1-1.6l-2.3-2a5 5 0 0 0-1.7-1c-1.6-.5-3.3.8-4.1 2.3-.9 1.4-1.4 3.1-2.6 4.3-1.7 1.8-4.9 1.9-6.5 0-1.6-1.8-.8-5.3 1.6-6 .9-.2 2-.2 2.5-1 .8-1.4-1.6-3.1-.7-4.6.6-1 2.2-.6 3.4-1 1.2-.3 1.9-1.5 2.6-2.5.7-1 1.8-2 3-1.8-.2-.7-.1-1.5.1-2.1a1.3 1.3 0 0 1 .8-.8 1.4 1.4 0 0 1 1 0c-.6 1 .2 2.4 1.2 3 1.1.3 2.3.4 3.4.2 1.2-.2 2.6-.6 2.7-1.7v-1.2c.5-1.3 3 .6 4-.6.6-.5 0-1.6-.8-1.7-.8-.2-1.6 0-2.4 0-.8.1-1.7-.3-1.8-1.1 0-.8.9-1.4 1-2.1.1-1.4-2.1-1.7-2.9-.6-.8 1-.5 2.5-.3 3.8.3 1.3.4 2.9-.6 3.8-.4.6-1.5.3-1.8-.4-.3-.7-.4-1.4-.4-2.2 0-.7-.3-1.6-1-1.8-.6 0-1.1 0-1.6.2-2 .2-3.5-2.4-2.9-4.4.7-2 2.5-3.2 4.3-4.2 1.4-.7 3-1.4 4.3-.7.6.4 1 1 1.6 1.3 1 .6 2.4.4 3.5.4 2 .1 3.7.8 5.2 2 .5.5 1 1.4.6 2-.4.5-1.8.7-1.5 1.4a2.6 2.6 0 0 0 3.2-2 2.2 2.2 0 0 1 1.2 1.7 3.8 3.8 0 0 1 5.6.5c.3.5.6 1 1 1.3.5.3 1.3.2 1.4-.4l-.1-.5-.9-2.4c1.1-.6 2.4.3 3.1 1.4 2.8 3.6 4.8 1.4 8.6 2 2.7.4 3.8 2.1 5.3 4.1 4.6 6.3 10.6 11.4 14.7 18l1.2 2-.2-.5a72 72 0 0 0-12.8-21.5l-1-1.1-.2-.4-1.1-1.2h-.1l-.3-.4-1-1a41.5 41.5 0 0 0-2.8-2.7l-1.3-1.1-1.2-1a47.9 47.9 0 0 0-7-5.3l-1.2-.7-1.1-.7-1.2-.7-1-.5-.4-.3a49.1 49.1 0 0 0-3-1.6l-1.4-.6-.2-.1-1.2-.6-1.8-.7-2-.8-2.2-.8-2.3-.7a228.2 228.2 0 0 0-7-1.8l-1.8-.3h-.1l-.8-.2-3.4-.4h-.4l-1-.2a61.7 61.7 0 0 0-4.7-.3h-2.5c-2.2 0-4.4 0-6.5.3l-1.6.1-1.5.2-1.6.2-1.6.3-1.4.2a162 162 0 0 0-4.8 1l-1.5.5-2.4.7-2 .7-2 .8H73l-1.8.7a53.5 53.5 0 0 0-5.9 2.8l-1.9 1-1.8 1-1.6 1.1-.7.4-1.7 1.2-2 1.5-1.8 1.3a74.2 74.2 0 0 0-14.4 15.2h.6c1 0 2.1-.2 3.1-.6.9-.4 1.5-1.2 2.3-1.8 2-1.4 5.4-1.7 6-4.1.2-.9 0-1.7.2-2.5.6-1.5 2.6-1.7 4.2-1.7.6 0 1.4.1 1.7.7a1.7 1.7 0 0 1 0 1.3c-1 2.8-3 5.1-5.5 6.7-2 1.2-4.7 2.2-5.2 4.5.2.8 1.7.7 1.8 1.6 0 .6-.8 1-1 1.5-.5 1 .5 2 1.5 2 1-.1 1.8-.8 2.5-1.5 2.1-2 4.4-4.1 5.2-7 .3-1.1.4-2.5 1.3-3.3a2.3 2.3 0 0 1 3.5 1.2c1-.6 2.4-1 2.9 0l.2 1.1c.3 1.5 2.4 2.2 2.6 3.7.2 1.8-2 2.7-3.8 3l-4.7.7c-.7 0-1.4.3-2 .6a1.6 1.6 0 0 0-.6 1.9l.8.8c1.4 1.4.2 4-1.6 4.1l-2-.2c-1.8 0-3.3 1.6-4.2 3.2-.9 1.7-1.5 3.6-3 4.7-2.5 1.8-6.7 1.4-7.8 4.2-.5 1.1-.2 2.4 0 3.6.2 1.2.2 2.6-.5 3.6s-2.5 1.2-3 0c-.2-.4-.2-1 0-1.5l.8-5.2c.2-1.3.3-2.8-.4-3.8-1-1.5-3.5-1.4-4.9-.2-1.4 1.2-2 3-2.3 4.8a21 21 0 0 1-1.4 4.7 63.8 63.8 0 0 0-.9 9l.6-.5c.8-.8 2.2-4 3.6-2.4a1.2 1.2 0 0 1 0 1.5c-.4.5-1.2.6-1.6 1.2-.3.7.2 1.5.8 2 .7.4 1.4.7 1.9 1.3.8 1.3 0 3.2.9 4.4.7 1.1 2.2 1.2 3.5 1.3h.5c.3-2.5 1.5-4.6 5-5.4 5-1.1 11.3 3 14 6.6 3.1 4 4.6 10 9.3 12 3.3 1.4 8 .9 9.7 4.2 1.5 3-1 6.2-1.5 9.5-.2 2.1.5 4.3.7 6.4.1 2.2-.5 4.7-2.5 5.6-1 .5-2.4.5-3.3 1.3-1.6 1.5-.3 4.5-1.9 6-.6.5-1.3.8-2 1-3.5 1.8-3.4 7-1.8 10.6l.2.4a74.4 74.4 0 0 0 112.3-58.9c-.8.9-1.9 1.3-3 1.4-1.7 0-3.2-1.6-4-3.2Z"/>
  <path fill="#969696" d="M35.5 136.9c-.2-2.2.5-4.3.5-6.5l-.1-4.5a20 20 0 0 1-3.8-.5l-.7-.4-.1-.8c-.1-1.6-1.7-2.7-3.2-3.6l-2.2-1.1v.5a74.2 74.2 0 0 0 28.7 56c-4-10.8-8-22-14.9-31.2-1.8-2.5-3.9-5-4.2-8ZM25.8 116V118.4 116Z"/>
  <path fill="#969696" d="M58.7 179c.6.5 1.3 1 2 1.3l-2-1.2Z" opacity=".6"/>
  <path fill="#DBDADA" d="m121.7 174.4-1.4-.1a4.5 4.5 0 0 1-3.2-2.5c-.4-1-.6-2.2-.6-3.3l-.3-2.2c-.3-1.3-1-2.5-1.7-3.5a12.4 12.4 0 0 1-2.3-8.4v-.5c-.4-13-4-23.7-10.6-30.7-.8-1-2-1.8-3.2-2.2a4 4 0 0 0-4 1.4l-.7 1c-.2.6-.6 1-1 1.5a3 3 0 0 1-2.7.7 4.7 4.7 0 0 1-3.2-2.3c-1.2-2-1-4.5-.8-6.5l.7-8.1c0-1.3.2-3 1.2-4.2a7 7 0 0 1 3-1.7 9 9 0 0 0 2.4-1c1.3-1 1.9-2.6 2.5-4.2l1.1-2.7a5 5 0 0 1 4.7-2.3 2.2 2.2 0 0 1 1.7 1.1 5.1 5.1 0 0 1 3-2.8c2.7-.7 6 1.4 9.2 3.5 2.9 1.8 5.6 3.6 7.7 3.2l1.7-.4c1-.4 2.3-.6 3.5-.5 3 .5 4.7 3.9 5.7 6.8l5.1 14.2c.6 1.7 1.4 3.7 3.1 4.3l2.1.3a7 7 0 0 1 2.3.3 3.6 3.6 0 0 1 2.3 3c.4 2.3-.7 5.3-2.7 7-1 .8-2 1.6-3 2.2-2.3 1.6-4.5 3-5.4 5.5-.5 1.4-.7 2.8-.6 4.2 0 1.5-.3 3-.8 4.4a13 13 0 0 1-2.2 3.3l-1.5 1.8c-1.6 2.5-2 5.5-2.5 8.5l-.1 1.1c-.5 3.3-1.4 7-4 9.2a6.9 6.9 0 0 1-4.5 1.6Z"/>
  <path fill="#969696" d="M25.9 114.2V116 114.2ZM25.8 118.4v1-1Z" opacity=".6"/>
  <path fill="#DBDADA" d="M36 123h-.4c-1.3-.2-2.8-.3-3.6-1.3-.8-1.3 0-3.2-.8-4.4-.5-.7-1.3-1-1.9-1.4-.6-.5-1.2-1.3-.8-2 .3-.5 1.2-.6 1.6-1.2a1.2 1.2 0 0 0 0-1.5c-1.4-1.6-2.9 1.7-3.6 2.4l-.6.6V119.5l2.3 1.1c1.4.9 3 2 3.1 3.6 0 .3 0 .6.2.8l.7.4c1.2.3 2.5.5 3.7.5"/>
  <path fill="#DBDADA" d="m35.9 126 .1 4.4c0 2.2-.7 4.3-.5 6.5.3 3 2.4 5.4 4.3 7.9 6.9 9.2 10.8 20.4 14.8 31.3a51 51 0 0 0 6 4.2l1.4.8-.2-.3c-1.6-3.6-1.7-8.8 1.8-10.6.7-.2 1.4-.6 2-1 1.6-1.5.3-4.6 1.9-6 .9-.9 2.3-.8 3.4-1.3 2-1 2.6-3.4 2.4-5.6-.1-2.2-.9-4.3-.6-6.5.4-3.2 3-6.5 1.5-9.5-1.7-3.3-6.4-2.7-9.8-4.2-4.7-2-6.2-7.9-9.2-12-2.8-3.6-9.2-7.7-14-6.6-3.6.8-4.8 3-5.2 5.5M30.5 95.7c1.4-1.2 3.8-1.4 4.8.1.8 1 .6 2.5.4 3.8l-.8 5.2c-.1.6-.1 1.1 0 1.6.6 1.1 2.4.9 3 0 .8-1 .7-2.4.5-3.6-.2-1.2-.4-2.5 0-3.6 1.2-2.8 5.4-2.4 7.8-4.2 1.5-1.2 2.2-3 3-4.7 1-1.7 2.5-3.3 4.3-3.3.7 0 1.3.3 2 .3 1.8 0 2.9-2.8 1.6-4.1-.3-.3-.6-.5-.8-.9a1.6 1.6 0 0 1 .6-1.8c.6-.4 1.2-.6 2-.6l4.7-.8c1.8-.3 4-1.2 3.8-3-.3-1.4-2.3-2.1-2.6-3.6l-.2-1.1c-.5-1-2-.6-2.9 0a2.3 2.3 0 0 0-3.5-1.2c-1 .8-1 2.1-1.4 3.3-.7 2.8-3 5-5.1 7-.8.6-1.6 1.3-2.5 1.4-1 0-2-1-1.6-1.9.3-.6 1.2-1 1-1.6 0-.8-1.5-.7-1.8-1.5.6-2.4 3.3-3.3 5.3-4.6a12.8 12.8 0 0 0 5.6-7.3l-.1-.7c-.3-.5-1.1-.6-1.8-.6-1.5 0-3.5.2-4 1.6-.4.8-.2 1.7-.4 2.5-.5 2.5-3.9 2.7-6 4.2-.7.6-1.3 1.4-2.2 1.8-1 .4-2 .5-3.1.5h-.6a45.8 45.8 0 0 0-3.6 5.6 74 74 0 0 0-9.1 25.3c.6-1.5 1-3.1 1.3-4.7.4-1.8 1-3.6 2.4-4.8ZM92.8 61.2c.7-1 .5-2.3 1-3.3.7-1.8 3.1-2.4 4-4.2.2-.7.3-1.5.9-2 .5-.5 1-.5 1.6-.8 1-.9.6-2.8-.5-3.5-3-2-8.3.2-10.8 2-3.3 2.4-6.4 5.2-10.8 5-1.2-.1-2.4-.4-3.5 0s-1.8 2-.8 2.8c.5.4 1.2.2 1.9.5 1 .5 1.2 2.1.6 3.2-.5 1.1-1.5 2-2.2 3-.6 1-.8 2.2-.7 3.4a3 3 0 0 0 1 2.2c1.3 1 3.3.1 4.5-1.1 1.1-1.3 1.9-3 3.3-3.9.8-.4 1.6-.7 2.5-.8l5.6-1.4c1 0 1.8-.5 2.4-1.1Z"/>
  <path fill="#969696" d="M174.5 116.3v1-1ZM169.8 91.4l1 2.8-1-2.8Z" opacity=".6"/>
  <path fill="#DBDADA" d="M174.5 116.3a56 56 0 0 0-1-11.5 71.8 71.8 0 0 0-2.7-10.6l-1-2.8-1.2-2.1c-4.1-6.6-10.1-11.7-14.7-18-1.5-2-2.6-3.7-5.2-4-4-.7-5.9 1.5-8.6-2.2-.8-1-2-1.9-3.2-1.3l.9 2.4v.5c0 .5-.8.7-1.3.4-.4-.4-.7-.8-1-1.4a3.8 3.8 0 0 0-5.6-.4 2.2 2.2 0 0 0-1.2-1.8 2.5 2.5 0 0 1-3.2 2c-.2-.6 1-.8 1.5-1.4.4-.6-.1-1.3-.6-1.8a8.2 8.2 0 0 0-5.1-2c-1.2 0-2.5.1-3.6-.5-.6-.3-1-1-1.6-1.3-1.3-.7-3 0-4.2.7-1.9 1-3.7 2.3-4.3 4.2-.7 2 .7 4.6 2.8 4.4a4 4 0 0 1 1.5-.2c.8.2 1.1 1 1.2 1.8 0 .8 0 1.5.3 2.2.4.7 1.4 1 1.8.4 1-1 .9-2.5.6-3.8-.2-1.3-.5-2.8.3-3.8.8-1.1 3-.8 2.9.5-.1.8-1 1.4-1 2.2 0 .8 1 1.2 1.9 1.2.7 0 1.6-.3 2.3-.2.8.2 1.5 1.3.9 1.8-1 1.1-3.5-.7-4 .6-.2.4 0 .8 0 1.2-.2 1.1-1.6 1.5-2.8 1.7-1.1.2-2.3.1-3.4-.3-1-.5-1.7-1.8-1.1-2.8a1.3 1.3 0 0 0-1.9.6c-.2.7-.2 1.5 0 2.2-1.3-.3-2.4.7-3 1.8-.8 1-1.4 2.2-2.7 2.6-1.2.3-2.8-.2-3.4 1-.8 1.3 1.5 3.1.7 4.5-.5.8-1.6.8-2.5 1-2.4.7-3.2 4.2-1.6 6 1.6 1.9 4.9 1.8 6.6 0 1.2-1.2 1.6-2.9 2.5-4.4.8-1.4 2.5-2.7 4.1-2.3a5 5 0 0 1 1.7 1.1l2.3 2c.6.4 1.1 1 1 1.6 0 .5-.4 1-.6 1.4-.5 1.5 1.6 2.8 2.9 2 1.3-.7 1.4-2.7.5-4-1.2-1.6-4-2.5-3.9-4.6 1.4-1.1 3.7.1 4.5 1.7.8 1.7.8 3.6 1.5 5.3.7 1.7 2.7 3.2 4.3 2.3l-1.3-4.3c1-.8 2.2 1.5 3.5 1 .7-.1.8-1.3.5-2-.3-.6-1-1.3-1-2-.3-1.5 1.3-2.8 2.8-2.5a3.7 3.7 0 0 1 2.7 3c0 .6.2 1.1.4 1.7.5 1.1 2 1.4 3 2 1.2.4 2.5 1.5 2 2.7-.3.5-.8 1-.6 1.5.2.5.9.7.9 1.2 0 .3-.4.5-.7.6-.8.4-1.6.5-2.4.8a2.2 2.2 0 0 0-1.3 2c0 1.1 1.5 1.7 2.1 2.6.7 1 .6 2.2 1 3.3.4.9 1 1.8 1.7 2.5 2 2.7 2.4 6.1 3.4 9.3.4 1.4 1.2 3 2.7 3.3.8 0 1.6-.1 2.3-.5 2.1-.8 4.3-1.7 5.8-3.4 1.5-1.8 2-4.6.4-6.2-.1-.3-.4-.4-.7-.5-.4 0-.7.2-1 .4a3.1 3.1 0 0 1-3.4-.7 9.3 9.3 0 0 1-2-3c-.5-1-1-2.3-1.7-3.4.7-.6 1.8-.4 2.6.2l1.7 2.1c1.7 2.2 4.6 3.2 7.4 3.5a7 7 0 0 1 2.1.4c2 1 2.7 4 4.9 4.7l1.9.4a3.4 3.4 0 0 1 1.5 2.4c.5 1.7.7 3.5 1.4 5.2.6 1.6 2.2 3.1 4 3.1 1 0 2.2-.5 3-1.3v-5.9ZM144.4 147.1c-1.1.3-1.4 1-2 1.7l-2.6 3.2c-1.2 1.8-.1 4.6-1.7 6.1l-1 .8a1.9 1.9 0 0 0 .3 2.6 2.5 2.5 0 0 0 2.8.1 4 4 0 0 0 1.7-2.3c.1-.7.4-1.4.9-2 .9-.7 2.3-.1 3.5-.3 5.1-.7 3-10.8-2-9.9ZM142.9 299l-26.6 8.3a3.5 3.5 0 0 1-4.3-2.3l-11.5-36.8a3.5 3.5 0 0 1 2.3-4.3l16.8-5.3 17.2 9.4 8.4 26.6a3.5 3.5 0 0 1-2.3 4.4Z"/>
  <path fill="#E0E0E0" d="m108.9 295.1 33.2-10.4 3 9.7a3.7 3.7 0 0 1-2.4 4.6l-26.3 8.2a3.6 3.6 0 0 1-4.5-2.3l-3-9.8Z"/>
  <path fill="#B19494" d="m123 294.8 1.8 5.4-1.2.3-.7-2.2-2.3.8.6 2.2-1.2.3-1.6-5.3 1.2-.4.6 2.1 2.4-.7-.7-2.1 1.2-.4ZM128.4 298.8c-.2.3-.5.5-.9.6a1.4 1.4 0 0 1-1.7-.5l-.2-.6-.5-1.6-.6.1-.3-.9.6-.2-.3-1 1.1-.3.3 1 1-.3.3.9-1 .3.5 1.7a.5.5 0 0 0 .3.4.5.5 0 0 0 .4 0c.2 0 .3-.2.4-.3l.6.7ZM135 294.4l.8 2.3-1.2.4-.6-2.2c-.3-.7-.6-.9-1.1-.7-.5.1-.8.6-.5 1.3l.6 2-1.1.4-.7-2.1c-.2-.7-.6-1-1-.8-.5.2-.8.6-.6 1.4l.7 2-1.1.4-1.3-4.1 1-.4.2.5a1.7 1.7 0 0 1 1-1 1.5 1.5 0 0 1 1.6.3 1.8 1.8 0 0 1 1.2-1c.9-.4 1.7 0 2.1 1.3ZM135 290.7l1.1-.3 1.8 5.6-1.1.4-1.8-5.7ZM117.7 276.6l-3.8 3.2 5 .5.6 2-7.2-.9-.6-2 5.4-4.7.6 1.9ZM120.7 269.4l1.8-.6.2 15.9-1.9.5-.1-15.8ZM131.1 273.4l.7 2-5.5 4.7-.6-1.9 3.9-3.2-5-.5-.6-2 7.1.9Z"/>
  <path fill="#B19494" d="m119.6 258.6 3.2 10.3a3.2 3.2 0 0 0 4 2.2l10-3.2-17.2-9.3Z" opacity=".3"/>
  <path fill="#E0E0E0" d="M123.3 269.8a3.6 3.6 0 0 0 3.7 2.5h.4c1.3-.2 10.4-1.4 10.3-1.5l-.9-2.8-9.9 3s-2.5.8-3.6-1.2Z"/>
  <path fill="#263238" d="m307.8 322-139 .1c-76.8 0-139 0-139-.2 0 0 62.2-.2 139-.2s139 .1 139 .2Z"/>
  <path fill="#CFCFCF" d="M266.3 87.5H64.7V239h201.6V87.5Z"/>
  <path fill="#263238" d="M266.3 239v-41.5l-.2-110 .3.3H64.8l.3-.3V239l-.3-.3 145.5.2H266.2h-3.5l-11 .1-41.2.1-145.7.2h-.4V87H266.6v.4l-.1 110.2-.1 30.5V239Z"/>
  <path fill="#263238" d="M265.3 106a4 4 0 0 1-.5 0h-1.5l-5.7.2h-21.2l-69.8-.3-69.7-.6-21.2-.2H68l.5-.1h7.2l21.2-.1 69.8.3 69.7.6 21.2.1 5.7.1h2ZM77.9 95.2a2.4 2.4 0 1 1-4.8 0 2.4 2.4 0 0 1 4.8 0ZM87.4 95.2a2.4 2.4 0 1 1-4.8 0 2.4 2.4 0 0 1 4.8 0ZM94.5 97.6a2.4 2.4 0 1 0 0-4.8 2.4 2.4 0 0 0 0 4.8Z"/>
  <path fill="#EBEBEB" d="M141.3 194H99.9v31h41.4v-31ZM186.8 194h-41.4v31h41.4v-31ZM239.8 194h-41.4v31h41.4v-31Z"/>
  <path fill="#F5F5F5" d="M311 120c-1.2-23.3-25.7-35-38.2-36.6l-10 11.8c8-1.2 28.1 10 29.1 18 1 8.1-5.2 18.5-13.3 19.2-6.4.6-17-5-21-.1a27.7 27.7 0 0 0-37.1 1.6 25.5 25.5 0 0 0-34 21.2l37.6 21.8s15.7 14 26.4 5.4c3.7-3 5-7.2 5.4-11.3.7.1 1.4 0 2.1-.1 2.7-.7 4.8-3.2 5.7-5.8l.2-1c9.2 2 21.6-.3 29-5 10.7-6.6 18.8-26.4 18.1-39Z"/>
  <path fill="#263238" d="m260.2 136.8-.1-.2-.4-.5-.6-.9-1-1.2a24.2 24.2 0 0 0-13.3-8 24 24 0 0 0-22.3 7.4c-.6.5-1 1.2-1.5 1.8l-.1.1h-.1a23.7 23.7 0 0 0-27.3 4.5c-2.2 2-3.9 4.5-5 7.2l-.4 1.4-.3 1-.1.5v.2-.8l.3-1 .4-1.3c1-2.8 2.8-5.4 5-7.4a24.6 24.6 0 0 1 11.5-6.5c5.4-1.3 11-.7 16 1.8h-.2a24 24 0 0 1 24.1-9.3 23.5 23.5 0 0 1 15.4 11.2Z"/>
  <path fill="#263238" d="M267.5 132s-.5-.4-1.4-.7a7.6 7.6 0 0 0-7 1c-.8.5-1.2 1-1.2 1l.2-.4.8-.8c.4-.4 1-.7 1.5-1a7.4 7.4 0 0 1 5.8 0 4.5 4.5 0 0 1 1.3.8ZM278.1 146.2l-1.1-.5c-1-.3-2.1-.5-3.2-.4-1.7 0-3.2.6-4.5 1.7a8 8 0 0 0-2.8 5.2v.2l-.3-.1c-.8-.5-1.6-1-2.5-1.2-2.2-.8-4.6-1-7-.5a12.5 12.5 0 0 0-7.7 5.5l-.7 1.3.1-.4.5-1a12.5 12.5 0 0 1 17.5-4l-.3.1c.3-2 1.4-4 3-5.4a7.8 7.8 0 0 1 9-.5ZM307.3 106.4l.2.5.8 1.4a31.2 31.2 0 0 1 2.9 13.9 43.2 43.2 0 0 1-1.1 10.4 55.7 55.7 0 0 1-10.6 22.1 19.1 19.1 0 0 1-1.1 1l1-1a57.4 57.4 0 0 0 11.4-32.4 37.8 37.8 0 0 0-2.7-14l-.6-1.3-.2-.6ZM288.6 107.3l.6.7c.6.6 1 1.3 1.4 2a14.8 14.8 0 0 1-2.7 18l2-2.6a15.1 15.1 0 0 0 .5-15.3c-.5-1-1.1-1.9-1.8-2.8Z"/>
  <path fill="#F28500" d="M263.9 89.2c1.7 2.7 4 5 6.5 6.7a2.1 2.1 0 0 0 3.2-2.5c3.1 2.3 6.3 4.5 9.7 6.4a2.6 2.6 0 0 0 3.8-3.2A40.4 40.4 0 0 0 268.6 75l-4.7 14.1Z"/>
  <path fill="#000" d="M267.7 89.5c.3.5.7 1 1.1 1.2a1.4 1.4 0 0 0 1.5.1c.7-.4.7-1.5 1.4-2 .7-.4 1.6.2 2.2.8l2 1.9c.4.5 1.1 1 1.7.7.6-.3.7-1.3.6-2a10.5 10.5 0 0 0-6.3-7.5l-4.2 6.8Z" opacity=".3"/>
  <path fill="#F28500" d="M293.7 105.6a2.4 2.4 0 1 0 0-.2"/>
  <path fill="#F5F5F5" d="M169.6 24.2c-1.9 3 2.3 13.3 11.8 26.5a90.4 90.4 0 0 0 20.3 20.4l55 35.3L266 92l5.4-8.4 9.3-14.5-50-32c-4.8-3.2-10-5.8-15.4-8s-11-3.9-16.6-5.2c-15.9-3.5-27.2-2.6-29 .4Z"/>
  <path fill="#F28500" d="M246.2 46.9h.2a41.2 41.2 0 0 1 35.4 4.3l6.6 4.3-17.5 7.2L246.2 47Z"/>
  <path fill="#263238" d="M246.2 46.9h.1l.4.3 1.3.9 5.2 3.2 17.7 11.3 15.9-6.6 1.5-.7v.3l-3.9-2.5a41.6 41.6 0 0 0-18.8-7.8c-1.1-.3-2.3-.3-3.4-.4a40.8 40.8 0 0 0-12.6 1l-2.5.7-.9.3.3-.1.5-.2 2.5-.8a39.8 39.8 0 0 1 23.6 1c2.6 1 5.2 2.2 7.6 3.6l3.8 2.4 4 2.5.1.2h-.2l-1.5.7-16 6.6L253 51.4l-5-3.3-1.4-.9-.3-.2-.1-.1Z"/>
  <path fill="#F28500" d="M222.2 84.3v.2a40.6 40.6 0 0 0 18.5 30l6.5 4-.7-18.6-24.3-15.6Z"/>
  <path fill="#263238" d="M222.2 84.3h.1l.4.3 1.3.8 5 3.2 17.6 11.2v.1l.7 17v1.9l-.1-.1-3.9-2.5-3.7-2.4a41 41 0 0 1-11-11.3l-1.8-3c-.5-.9-1-1.8-1.3-2.8a39.5 39.5 0 0 1-2.8-9c-.3-1-.3-2-.4-2.5v-.7c-.1-.1 0-.2 0-.2v.9l.5 2.5c.6 3.1 1.5 6.1 2.8 9l1.4 2.8a39 39 0 0 0 12.8 14.1c1.1.9 2.4 1.6 3.6 2.4l3.9 2.5-.2.1v-1.7l-.7-17v.1L229 88.7l-5-3.2-1.4-.9-.3-.2Z"/>
  <path fill="#F28500" d="M169.6 24.2c-1.5 2.2.7 9 6.2 18l14.8-20c-10.7-1.2-19-.9-21 2Z"/>
  <path fill="#263238" d="m271.5 63.7-11.7 18.6a1039.8 1039.8 0 0 1 11.7-18.6ZM273 64.9ZM274.8 66a1040 1040 0 0 1 0 0ZM276.6 67a1823.5 1823.5 0 0 1 0 0ZM278.4 68.2ZM234.3 65.6h.3l.7.5 2.8 1.7a616.7 616.7 0 0 1 18 11.8l2.7 1.8.7.5.3.2-.3-.1-.7-.5-2.8-1.8-9-5.9-9-5.8-2.6-1.8-.8-.5-.3-.1ZM246.2 46.9s-5.2 8.4-11.8 18.6A1078.6 1078.6 0 0 1 246.2 47ZM254.4 74.2v-.3c0-.3.2-.6.4-.8a1.4 1.4 0 0 1 1.3-.4 1.4 1.4 0 0 1 .3 2.7 1.4 1.4 0 0 1-1.4 0c-.3-.2-.5-.4-.6-.7v-.4l.1.3c.1.3.3.5.6.6a1.2 1.2 0 0 0 1.2 0 1.2 1.2 0 0 0 .6-1.2 1.2 1.2 0 0 0-.9-1 1.2 1.2 0 0 0-1.1.2l-.5.7v.3ZM243.9 67.2v-.4c0-.3.2-.5.4-.8a1.3 1.3 0 0 1 1.3-.3 1.4 1.4 0 0 1 .9 2.1c-.2.3-.4.5-.7.6a1.4 1.4 0 0 1-1.3 0l-.6-.7v-.4l.1.3c.1.3.3.5.6.6a1.2 1.2 0 0 0 1.1 0 1.2 1.2 0 0 0-.2-2.3 1.2 1.2 0 0 0-1.1.3l-.5.7v.3ZM223.6 62.3V62c0-.4.2-.6.4-.8a1.4 1.4 0 0 1 1.4-.4 1.4 1.4 0 0 1 .2 2.7 1.3 1.3 0 0 1-1.3 0l-.6-.7v-.4.3c.2.3.4.5.7.6a1.2 1.2 0 0 0 1.1 0 1.4 1.4 0 0 0 .7-1.2 1.3 1.3 0 0 0-.9-1 1.2 1.2 0 0 0-1.1.2l-.5.7v.3ZM214.6 60a239 239 0 0 1 17.1 9.7 227 227 0 0 1-17.1-9.6Z"/>
  <path fill="#000" d="M245.9 99.5s-15.7-10.6-23.7-15.2c2.8 4 6 8.4 9.7 11.3 4 3 9 4.4 14 3.9Z" opacity=".3"/>
  <path fill="#fff" d="M220.3 52.6a13.3 13.3 0 1 0-25.5-7.5 13.3 13.3 0 0 0 25.5 7.5Z"/>
  <path fill="#263238" d="M220.9 49.7V48.8l-.1-1-.2-1.4a13 13 0 0 0-4.4-7.5 13.1 13.1 0 1 0 4.6 11v-.2.8l-.1 1-.4 1.4a13.4 13.4 0 0 1-26.2-4.8 13.5 13.5 0 0 1 21.8-9.8 13.4 13.4 0 0 1 5 10.5V49.7Z"/>
  <path fill="#263238" d="m169.6 24.2.1-.2.3-.3a5 5 0 0 1 1.6-1c2.2-.7 4.5-1.2 6.9-1.2 3.7 0 7.5.1 11.2.6a104.5 104.5 0 0 1 40.7 14.4l9.1 5.9 41.3 26.4.1.1v.2l-12 18.7-12 18.7-.1.1h-.2L215.3 80l-9.1-6-4.4-2.7-4-3A96.7 96.7 0 0 1 171 33.2c-1-2.1-1.6-4.4-1.8-6.8l.1-1.8.2-.4.1-.1-.2.5a5 5 0 0 0-.2 1.8 22 22 0 0 0 2 6.8 118 118 0 0 0 14 22 96.5 96.5 0 0 0 16.8 15.8l4.3 2.8 9.2 6 41.3 26.4h-.3l12-18.7 12-18.7v.3l-41.2-26.5-9.1-6a93 93 0 0 0-26-11.3 104.5 104.5 0 0 0-25.7-3.8c-2.3 0-4.7.4-6.9 1.2-.6.2-1 .5-1.6.9l-.4.5Z"/>
  <path fill="#fff" d="M224.1 177H107a13.9 13.9 0 0 1 0-27.8h117.2a13.9 13.9 0 0 1 0 27.8Z"/>
  <path fill="#263238" d="m224.1 177 .9-.1 1-.1c.4 0 .9-.1 1.3-.3l.9-.2.9-.3.4-.2.5-.2 1-.5a13.6 13.6 0 0 0 6.5-8.8l.1-.4v-.5l.2-.9v-2.9c-.2-1.4-.5-2.7-1-4a14 14 0 0 0-10.9-8.1c-1.7-.2-3.5-.1-5.3-.1H106.9c-1.3 0-2.7.2-4 .6a14.8 14.8 0 0 0-6.6 4.5 14.2 14.2 0 0 0-3 7.3 13.6 13.6 0 0 0 12.2 14.9H126l51 .1H221h-9.4l-34.4.1h-71.7l-1.8-.3a14 14 0 0 1-10.7-15 14 14 0 0 1 14-12.7h113.7c1.8 0 3.5 0 5.3.2a13.7 13.7 0 0 1 11 8.3c.5 1.3 1 2.6 1 4l.1 1v2l-.2 1v.4l-.2.4-.2.9-.6 1.6a12 12 0 0 1-1.7 2.8 13.7 13.7 0 0 1-5 4l-.5.2-.5.2c-.3.1-.6.3-1 .3l-.7.2a10 10 0 0 1-2.4.4l-.9.2Z"/>
  <path fill="#fff" d="M223.2 166.7a6.2 6.2 0 1 0-8.7-8.7 6.2 6.2 0 0 0 8.7 8.7Z"/>
  <path fill="#263238" d="M218.8 168.8a6.5 6.5 0 1 1 0-13 6.5 6.5 0 0 1 0 13Zm0-12.3a5.8 5.8 0 1 0 0 11.7 5.8 5.8 0 0 0 0-11.7Z"/>
  <path fill="#263238" d="m224 165.7-.4.6 5.2 3.3.4-.6-5.2-3.3ZM112.5 165.4l.5-1.2c.7.5 1.4.7 2.2.7.8 0 1.2-.3 1.2-.7 0-1.2-3.8-.3-3.8-2.7 0-1.1 1-2 2.7-2 .8 0 1.6.1 2.3.5l-.5 1.1c-.5-.3-1.1-.5-1.8-.5-.9 0-1.2.4-1.2.8 0 1.2 3.8.3 3.8 2.7 0 1.1-1 2-2.8 2-1 0-1.8-.2-2.6-.7ZM123.7 164h-3.8a1.4 1.4 0 0 0 1.4 1 1.7 1.7 0 0 0 1.3-.6l.7.9a2.6 2.6 0 0 1-2 .8c-1.7 0-2.8-1.1-2.8-2.6a2.5 2.5 0 0 1 2.6-2.6 2.4 2.4 0 0 1 2.6 3Zm-3.8-1h2.4a1.2 1.2 0 0 0-2.4 0ZM129 163.1v2.9h-1.4v-.6a1.6 1.6 0 0 1-1.5.6c-1.2 0-1.9-.6-1.9-1.5 0-.8.6-1.4 2.1-1.4h1.2c0-.7-.4-1-1.2-1-.5 0-1 .1-1.4.4l-.5-1c.6-.4 1.4-.6 2.1-.6 1.5 0 2.4.7 2.4 2.2Zm-1.5 1.3v-.5h-1c-.7 0-.9.3-.9.6s.3.6.8.6a1 1 0 0 0 1-.7ZM133.3 161v1.3h-.3a1.2 1.2 0 0 0-1.4 1.4v2.3h-1.4v-5h1.3v.7a2 2 0 0 1 1.8-.8ZM133.7 163.5a2.6 2.6 0 0 1 2.8-2.6 2.3 2.3 0 0 1 2.3 1.3l-1.2.6a1.3 1.3 0 0 0-1-.7 1.4 1.4 0 0 0 0 2.8 1.2 1.2 0 0 0 1-.7l1.2.6a2.3 2.3 0 0 1-2.3 1.3 2.6 2.6 0 0 1-2.8-2.6ZM144.6 163.1v2.9h-1.4v-2.7c0-.8-.4-1.1-1-1.1-.7 0-1.2.4-1.2 1.3v2.5h-1.5V159h1.5v2.4a2.2 2.2 0 0 1 1.6-.6c1.2 0 2 .7 2 2.2ZM145.6 165.2a.9.9 0 0 1 .9-1 .9.9 0 0 1 .6 1.6.9.9 0 0 1-.6.3.9.9 0 0 1-1-1ZM148 165.2a.9.9 0 0 1 .9-1 .9.9 0 0 1 .9 1 .9.9 0 0 1-.9.9.9.9 0 0 1-.9-1ZM150.4 165.2a.9.9 0 1 1 1.8 0 .9.9 0 0 1-1.8 0Z"/>
  <path fill="#F28500" d="M68.1 67.6 46.4 56a3 3 0 0 1-1.3-4.2L61 21.8a3 3 0 0 1 4.1-1.3L79 27.8l4.8 16.6-11.5 21.9a3 3 0 0 1-4.2 1.3Z"/>
  <path fill="#fff" d="m79 27.8-4.5 8.5a2.9 2.9 0 0 0 1.2 3.8l8.1 4.3L79 27.8Z" opacity=".3"/>
  <path fill="#000" d="M74.2 37a3.2 3.2 0 0 0 .8 4l.2.2c1 .7 7.3 5.7 7.4 5.5l1.2-2.3-8.1-4.3s-2-1.1-1.5-3Z" opacity=".2"/>
  <path fill="#FAFAFA" d="M72.8 35s-2.3-1-5.1-2.5-5-2.8-5-2.9c.1 0 2.4 1 5.2 2.5l5 2.8ZM76.8 43.2 68.4 39a95.3 95.3 0 0 1-8.2-4.6l8.4 4.2c4.6 2.4 8.3 4.5 8.2 4.6ZM76.2 48 67 43.4c-5-2.7-9-4.9-8.9-5 0 0 4.2 2 9.1 4.6 5 2.6 9 4.9 9 5ZM74.2 51.7c0 .1-4.2-1.9-9.2-4.5-5-2.7-9-4.9-8.9-5l9.2 4.6c5 2.6 9 4.8 8.9 5ZM72.2 55.5c0 .1-4.2-2-9.1-4.6-5-2.6-9-4.8-9-5 0 0 4.2 2 9.2 4.7 5 2.6 9 4.8 8.9 5ZM70.2 59.3c0 .1-4.2-2-9.1-4.6-5-2.6-9-4.8-9-5l9.2 4.6c5 2.7 9 4.9 8.9 5Z"/>
  <path fill="#455A64" d="M175.4 294a3.5 3.5 0 0 1-3-4l4.4-30.1a3 3 0 0 1 3.3-2.4l2.9.4a3 3 0 0 0 2.9-1.2l.8-1.2a3 3 0 0 1 3-1.2l13.4 2a3 3 0 0 1 2.4 1.7l.5 1.1a3 3 0 0 0 2.3 1.8l17.2 2.4a3 3 0 0 1 2.6 3.2l-4.4 31a3.5 3.5 0 0 1-4 2.9l-44.3-6.4Z"/>
  <path fill="#000" d="M175.4 294a3.5 3.5 0 0 1-3-4l4.4-30.1a3 3 0 0 1 3.3-2.4l2.9.4a3 3 0 0 0 2.9-1.2l.8-1.2a3 3 0 0 1 3-1.2l13.4 2a3 3 0 0 1 2.4 1.7l.5 1.1a3 3 0 0 0 2.3 1.8l17.2 2.4a3 3 0 0 1 2.6 3.2l-4.4 31a3.5 3.5 0 0 1-4 2.9l-44.3-6.4Z" opacity=".3"/>
  <path fill="#455A64" d="m206.6 260.6-10.9-1.6-.7-2a3.8 3.8 0 0 0-3-2.3l-10.8-1.6a3.4 3.4 0 0 0-3.9 2.7l-.1 1.3-4.8 32.8a3.8 3.8 0 0 0 3.4 4.2l43.4 6.3a3.8 3.8 0 0 0 4.5-3.1l4.4-31a2.5 2.5 0 0 0-1.2-2.5l-1-.4-19.3-2.8Z"/>
  <path fill="#fff" d="m215.4 274.1-25.8-3.7-1.6 10.9 25.8 3.7 1.6-10.9Z"/>
  <path fill="#263238" d="m210.7 278.3-8.9-1-8.8-1.5 8.9 1 8.8 1.5ZM210.4 280.6l-9-1a110 110 0 0 1-8.8-1.5l9 1 8.8 1.5Z"/>
  <path fill="#F28500" d="M253.7 280.6a2.3 2.3 0 0 1-3-1.3l-7-18.7a1.9 1.9 0 0 1 1.1-2.5l1.8-.6a2 2 0 0 0 1.2-1.7l.1-.9a2 2 0 0 1 1.3-1.6l8.4-3.2a2 2 0 0 1 1.9.2l.6.5a2 2 0 0 0 2 .3l10.6-4a2 2 0 0 1 2.5 1l7.3 19a2.3 2.3 0 0 1-1.3 3l-27.5 10.5Z"/>
  <path fill="#000" d="M253.7 280.6a2.3 2.3 0 0 1-3-1.3l-7-18.7a1.9 1.9 0 0 1 1.1-2.5l1.8-.6a2 2 0 0 0 1.2-1.7l.1-.9a2 2 0 0 1 1.3-1.6l8.4-3.2a2 2 0 0 1 1.9.2l.6.5a2 2 0 0 0 2 .3l10.6-4a2 2 0 0 1 2.5 1l7.3 19a2.3 2.3 0 0 1-1.3 3l-27.5 10.5Z" opacity=".3"/>
  <path fill="#F28500" d="m261 251.5-6.8 2.6-1-1a2.5 2.5 0 0 0-2.5-.3l-6.6 2.5a2.2 2.2 0 0 0-1.4 2.8l.3.8 7.8 20.3a2.5 2.5 0 0 0 3.3 1.3l26.8-10.3a2.5 2.5 0 0 0 1.6-3.2l-7.3-19.1a1.7 1.7 0 0 0-2.2-1l-12 4.6Z"/>
  <path fill="#fff" d="m270.3 256.4-16 6.1 2.6 6.7 16-6-2.6-6.8Z"/>
  <path fill="#263238" d="M269 260.3c-1.8.9-3.6 1.6-5.4 2.3l-5.6 2c1.8-1 3.6-1.7 5.4-2.3 1.8-.8 3.7-1.4 5.6-2ZM269.5 261.8c-1.7.8-3.5 1.6-5.4 2.2-1.8.8-3.7 1.4-5.6 2a48 48 0 0 1 5.5-2.3c1.8-.8 3.6-1.4 5.5-2Z"/>
  <path fill="#F28500" d="M280.7 292.3a5.6 5.6 0 0 1 2.9 3.2c.4 1.4.5 3 .3 4.4-.3 2.9-2 5.7-3.7 8-2.4-2-3-5.7-3-7.6-.3-3 1-8.5 3.5-8ZM283 312.6a4.7 4.7 0 0 1 1.6-4.5 6.3 6.3 0 0 1 5.7-1.2l.9.7a2 2 0 0 1 0 2c-.4.7-.9 1.2-1.5 1.5-2 1.3-4.3 2.2-6.7 1.5"/>
  <path fill="#263238" d="M280 321.4v-.6l.3-1.6c.3-1.8.8-3.5 1.7-5 .8-1.6 2-3 3.6-4l1.5-.6.4-.1h.1a10.4 10.4 0 0 0-5.5 4.7c-.8 1.6-1.3 3.3-1.6 5a67.4 67.4 0 0 1-.5 2.2Z"/>
  <path fill="#263238" d="M280 296.6V297.5a117.7 117.7 0 0 1 .3 11.7 245.5 245.5 0 0 1-.3 11.6v1-3.7a403.1 403.1 0 0 0 0-17.8v-3.7Z"/>
  <path fill="#F28500" d="M278.9 314.4a11 11 0 0 0-6-8.1c-.8-.4-1.9-.7-2.5 0-.7.5-.6 1.6-.2 2.4a9.4 9.4 0 0 0 8.6 5.9"/>
  <path fill="#263238" d="m273.2 309 .6.2.5.3.8.5a8.7 8.7 0 0 1 1.7 1.4l1.7 2.2a12.3 12.3 0 0 1 1.5 4.7 8 8 0 0 1 0 1.6v.5l-.1-2c0-.3 0-.7-.2-1l-.3-1.2a11.8 11.8 0 0 0-4.4-6c-1-.8-1.8-1.2-1.8-1.2Z"/>
  <path fill="#455A64" d="m78.8 302.8-.4 19.7 25.8.6c0-2.4-13.3-7.4-13.3-7.4l.8-12.5-13-.4Z"/>
  <path fill="#fff" d="M82.9 314.5a1 1 0 0 0-.8 1.1 1 1 0 0 0 1.2.7 1 1 0 0 0 .7-.4 1 1 0 0 0-1.2-1.4M78.4 322.5v-2l24.8 1.3s1.1.5 1 1.3l-25.8-.6Z" opacity=".6"/>
  <path fill="#263238" d="m91.3 315.6-1.3.5c-.6.4-1 .9-1 .9-.2 0 0-.8.8-1.2.8-.4 1.5-.3 1.5-.2ZM94 316.7c0 .2-.6.3-1 .8l-.7 1s-.2-.6.4-1.2c.6-.6 1.3-.7 1.3-.6ZM95.4 319.8s-.2-.5 0-1.2c.4-.6 1-.9 1-.8.1.1-.2.5-.5 1s-.3 1-.5 1ZM91.1 312.7h-1.3c-.7 0-1.3.2-1.4.1 0 0 .5-.5 1.4-.5.8 0 1.4.3 1.3.4ZM90.6 309.8h-1.3a6.1 6.1 0 0 1-2-.8l-.5-.3a.5.5 0 0 1 0-.7.7.7 0 0 1 .6-.2h.4a4.7 4.7 0 0 1 2 1.1c.6.5.8 1 .7 1l-.9-.8a5.4 5.4 0 0 0-1.9-.9h-.5c-.1.1 0 .1 0 .2l.2.2a7.7 7.7 0 0 0 2 .9l1.2.3Z"/>
  <path fill="#263238" d="m90.4 310-.3-1.2a3.7 3.7 0 0 1 .6-2 1 1 0 0 1 .8-.7.6.6 0 0 1 .6.4v.4a2.6 2.6 0 0 1-.5 2.1c-.5.6-1 .7-1 .7l.8-.9a2.8 2.8 0 0 0 .4-1.8c0-.3-.1-.5-.2-.5a1 1 0 0 0-.5.4 4 4 0 0 0-.6 2v1Z"/>
  <path fill="#455A64" d="m59.2 304.5-2.5 19.4-25.7-3.2c.5-2.2 14.3-5.3 14.3-5.3l1-12.5 12.9 1.6Z"/>
  <path fill="#fff" d="M53.4 315.4a1 1 0 0 1 .6 1.2 1 1 0 0 1-1.3.5 1 1 0 0 1-.6-1.3 1 1 0 0 1 1.4-.4M56.7 324l.2-2-24.7-2.4s-1.2.3-1.2 1.1l25.7 3.2Z" opacity=".6"/>
  <path fill="#263238" d="m45 315.3 1.1.7c.6.4.9 1 1 1 .1 0 0-.8-.7-1.3-.7-.6-1.5-.5-1.5-.4ZM42.1 316c0 .1.5.4.9 1l.5 1c.1 0 .3-.6-.2-1.3-.4-.7-1.2-.8-1.2-.7ZM40.2 318.8c.1 0 .4-.5.1-1.2-.2-.7-.8-1-.8-.9l.4 1 .3 1.1ZM45.5 312.4c0 .2.6 0 1.4.2.7.2 1.2.4 1.3.3 0 0-.4-.6-1.3-.7-.8-.2-1.4.1-1.4.2ZM46.5 309.6c.4.2.8.3 1.3.2a5.6 5.6 0 0 0 2.6-.7.5.5 0 0 0 0-.7.7.7 0 0 0-.4-.3h-.5c-.3 0-.6 0-.8.2-.5 0-1 .3-1.3.5-.7.5-1 .9-.9 1l1-.7a5 5 0 0 1 2-.6l.6.1v.1l-.4.2-.7.3-1.3.3-1.2.1Z"/>
  <path fill="#263238" d="M46.6 309.8c.3-.3.5-.7.5-1.1a3.8 3.8 0 0 0-.2-2.1 1 1 0 0 0-.8-.8.6.6 0 0 0-.6.3l-.1.4c-.1.3-.2.6-.1.9 0 .4.1 1 .3 1.3.5.7 1 1 1 .9l-.7-1c-.2-.4-.2-.8-.2-1.2v-.7l.4-.4s.3.2.4.5l.2.6.1 1.3c0 .7-.2 1.1-.2 1.1Z"/>
  <path fill="#263238" d="m98.8 198.7-40.2 1.2s-9.5 63.3-9.2 67.8l-5.9 45.9 17 .6 4.6-25.1c1.2-6.8 3.5-16.8 4.1-22.4.6-5.7 10.6-45.2 10.6-45.2l-.8 47.7-2 44.9h17c.8-7.8 2.9-38.8 3.3-45 .8-11.4 3.4-43.4 3.7-51.6.4-8.1-2.2-18.8-2.2-18.8Z"/>
  <path fill="#455A64" d="M96.2 199c-.2-1-.2-2 0-3 .2 1 .2 2 0 3ZM97.8 199.7c-.3-1.2-.2-2.5.3-3.6l-.1 1.8c0 .6 0 1.2-.2 1.8ZM82.8 196.7c-.3 0-.6.2-.8.5a1.2 1.2 0 0 0-.3 1 1.1 1.1 0 0 0 1.9.3 1.2 1.2 0 0 0 .1-1c-.1-.3-.3-.6-.6-.7h.3l.5.6a1.4 1.4 0 0 1 0 1.2 1.3 1.3 0 0 1-1.4.6 1.4 1.4 0 0 1-1-1 1.3 1.3 0 0 1 .3-1.1c.2-.3.4-.4.7-.4h.3ZM64.3 266.6c-1.5-.5-3-1-4.3-1.6a36 36 0 0 1-4.2-2c1.4.5 2.9 1 4.3 1.7 1.4.5 2.8 1.2 4.2 1.9Z"/>
  <path fill="#263238" d="M62.1 103.5c.1-2.3 1.6-3.8 3.6-5a7.3 7.3 0 0 1 6.7-.3c1.5.7 2.7 1.9 4.3 2 2.5.4 5-2 7.5-1.4a3.3 3.3 0 0 1-.3 6.5c1.7.3 2.6 2.4 2 4-.6 1.6-2.3 2.5-4 2.5-1.7 0-3.4-.6-4.8-1.5-1.5-.8-2.8-1.9-4.4-2.6-1.5-.8-3.2-1-4.9-.7-2.2.6-3.8 2.7-4.4 4.9-.5 2.2-.3 4.5 0 6.8.4 2.3.8 4.6.6 6.9a.8.8 0 0 1-.3.6c-.4.2-.8 0-1-.4-2.8-3.4-5-7.3-6.3-11.5-.8-2.4-1.2-4.8-.3-7.1 1-2.4 4-4.7 6-3.7"/>
  <path fill="#FFBE9D" d="m60 114.8 3.7 23.2c.6 4.3 3.5 8.5 10.3 7 5.7-1.6 5.3-5.8 4.6-11 0 0 6.3-1.6 5.8-8-.3-3.2-1.4-9.6-2.5-15.4a12.1 12.1 0 0 0-13-9.8h-.7c-6.7 1.1-9.5 7.4-8.3 14Z"/>
  <path fill="#EB996E" d="M78.6 134c-3 .4-6-.2-8.7-1.6 0 0 2.5 4.8 9 3.6l-.3-2Z"/>
  <path fill="#263238" d="M80.7 116.3a1 1 0 0 1-.8 1 .9.9 0 0 1-1-.4v-.3a1 1 0 0 1 .7-1 .9.9 0 0 1 .7.1.9.9 0 0 1 .4.6ZM80.9 114c-.1 0-.9-.4-1.9-.3-1 .1-1.7.7-1.8.6-.1-.1 0-.3.3-.6a2.6 2.6 0 0 1 3-.2l.4.4ZM71.6 117.7a1 1 0 0 1-.8 1 .9.9 0 0 1-.9-.4l-.1-.3a1 1 0 0 1 .8-1 .9.9 0 0 1 1 .7ZM71.3 115.1c-.1.1-.9-.3-1.9-.2-1 0-1.6.7-1.7.6-.2-.2 0-.3.3-.6a2.6 2.6 0 0 1 2.9-.3c.3.2.4.4.4.5ZM75.5 122.1c.5-.2 1-.4 1.5-.4.3 0 .5-.2.6-.3a158.6 158.6 0 0 1-3.4-7.5c1 1.5 1.8 3 2.6 4.7l.9 1.9c.2.3.2.6.2 1a.6.6 0 0 1-.4.4h-.4c-.5.2-1 .2-1.6.2ZM71 111.2c0 .3-1.1.2-2.3.5-1.1.3-2 .7-2.2.4 0 0 0-.3.4-.6a4 4 0 0 1 3.4-.8c.5.2.7.4.7.5ZM80.2 111.1c-.1.2-.9 0-1.7.2-.8 0-1.5.3-1.7 0 0 0 0-.3.3-.6a2.5 2.5 0 0 1 2.7-.1c.4.2.5.4.4.5Z"/>
  <path fill="#FFBE9D" d="M61 119.6c-.2 0-4.7-.9-4 3.5.5 4.4 4.8 3 4.8 2.8l-.9-6.3Z"/>
  <path fill="#EB996E" d="m60.2 124.4-.1.1c-.2.1-.4.2-.6.1a2 2 0 0 1-1.1-1.6v-1a.9.9 0 0 1 .5-.8.4.4 0 0 1 .5.2l.1.2v-.3l-.2-.2a.6.6 0 0 0-.4 0 1 1 0 0 0-.7.7c-.1.4-.2.9-.1 1.3a2 2 0 0 0 1.3 1.7.8.8 0 0 0 .7-.2c.2 0 .2-.2.1-.2Z"/>
  <path fill="#263238" d="M81.4 104.6a8.4 8.4 0 0 0-3-2.8 14.5 14.5 0 0 0-8.7-2.2c-3 .3-5.9 1.7-7.9 4a12.4 12.4 0 0 0-2.8 6.6c-.2 2.4 0 4.8.7 7.1.2 1 .7 2 1.5 2.8.5.4 1.3.7 1.8.2.2-.3.4-.7.4-1 .5-3.6 1-7.3-.6-10.5.7-1.2 1.6-2.3 2.8-3a5.3 5.3 0 0 1 4-1c2 .4 3.4 2.2 5 3.3a9.4 9.4 0 0 0 8.6 1l-1.8-4.5Z"/>
  <path fill="#EB996E" d="M76.3 124.8 76 126a1.5 1.5 0 0 1-1 .8 1.3 1.3 0 0 1-1.1-.3c-.4-.4-.6-.8-.6-1.2 0-.4 0-1 .4-1h.5l2.2.3"/>
  <path fill="#263238" d="M75.9 126.7h-1.2a1.6 1.6 0 0 1-1.3-1.2 1.7 1.7 0 0 1 .1-1l.2-.1h.3l.4.1 1.3.2c.4.1.8.2 1.2.1l-1.2-.3-1.2-.3-.4-.1h-.7l-.2.2-.1.5a2 2 0 0 0 .4 1.6c.3.4.7.6 1.2.6l.9-.1.3-.2Z"/>
  <path fill="#FFBE9D" d="m92.3 115.3 1-.3 16.3 15.8 13.2 1.6s0-4-5-9c-4.5-4.6-14.9-10-18.4-12.8-.4-.4-1-.7-1.5-.9l-5.6 5.6Z"/>
  <path fill="#FFBE9D" d="m92.3 107.8-1.7-.5-3.9-1.9-4.5 1.7s.1 1.5 1.3 1l-4.7 1.6s.4 1.2.6 1.2c.2.1-2.7.3-2.7.3s0 1.5 2.8 1.5 3.9-.5 3.9-.5l2.2.6v1.4h-3.2l.2 1.6c1.3.3 2.6.5 4 .6 0 0 4.7.1 6-.5l2.9-1.5 2.4-4.7-5.6-2Z"/>
  <path fill="#EB996E" d="m88 108.5-.6-.2-1.6-.9h.2l-.2.1c-.5.4-1.2.6-1.8.7h-.8a10 10 0 0 0 2.4-1h.2l.1-.1h.1l1.5 1 .6.4ZM86.6 111l-.7-.2-1.6-1h.1A6.7 6.7 0 0 1 81 111h-1c1.1-.2 2.3-.5 3.4-1 .3 0 .6-.2.9-.4h.1c.7.3 1.2.8 1.6 1l.6.3ZM90.8 112.4H90c-.6 0-1.3.2-1.9.5l-1 1c-.6.2-1.1.3-1.7.2a5 5 0 0 1 1.6-.4h-.1c.2-.4.6-.8 1-1 .6-.5 1.4-.7 2.1-.6.6 0 1 .3 1 .3Z"/>
  <path fill="#EB996E" d="M95.5 114.4h-.2l-.4.3-1.6.9-1.3.5c-.5.2-1 .2-1.6.3l-3.9.2-1.7-.2c-.7 0-1.3-.2-2-.4l-.3-2v-.1h.1l3 .1-.2.2v-1.4l.2.2-2.3-.6h.1a11.8 11.8 0 0 1-5.1.4 2.3 2.3 0 0 1-1.6-1l-.2-.5v-.2h.2l2-.2h.6a.1.1 0 0 0 0 .1l.1.1-.3-.3-.4-1v-.1h.1l4.8-1.6v.3h-.5a.9.9 0 0 1-.5-.2c-.3-.3-.4-.7-.4-1v-.2l4.6-1.7 4 2 1.6.4 1.5.5 2.2.8 1.5.5.4.2h-.5l-1.4-.6-2.3-.7-1.4-.5-1.7-.4-4-1.9h.2l-4.5 1.7.1-.2.3.9a.7.7 0 0 0 .8 0l.1.4L79 110l.1-.3a6 6 0 0 0 .5 1.1.2.2 0 0 1 .1.2v.1h-.8c-.6.2-1.3.2-2 .3l.1-.2.1.4a2 2 0 0 0 1.4.8l1.7.1c1 0 2.2-.2 3.2-.5h.1l2.3.6h.1v1.7h-.2l-3-.2.2-.1.3 1.9v-.2l1.8.4 1.7.2 3.9-.1 1.6-.3c.4 0 .8-.3 1.2-.5l1.6-.8.5-.2c-.1 0 0 0 0 0Z"/>
  <path fill="#EB996E" d="M89.8 109.3c-.4.7-1 1.3-1.7 1.8s-1.4.8-2.3 1l2-1.3 2-1.5Z"/>
  <path fill="#F28500" d="m122.7 132-13-1.2-15.5 5.9-3.4 2 4.8 16.5s24.2-14.2 25.2-15.4a8.8 8.8 0 0 0 2-7.9Z"/>
  <path fill="#F28500" d="m53 144-4.6 2.8 10.4 41-1.9 23.5c2.7 2.3 9.5 4.3 22.3 3.6 12.8-.7 21.4-6.3 21.4-6.3l-1.3-24.3-2.9-27.3-3.3-18.7-9.8.7-3.9-2.3-1.7.9-2.2 6.1-5.8-4.2-6.7-3.2-2.5 4.6-7.6 3.2Z"/>
  <path fill="#263238" d="m93.1 143 .4 1 .8 2.5a83 83 0 0 1 3.1 19.9l-.2-2.6a106.6 106.6 0 0 0-3-17.3l-.8-2.5-.3-1ZM73.6 143.4c-.3 0-.6-.2-.9-.4a6 6 0 0 1-2-1.7l.2-.1c-.1 2-.5 4-1.2 6v.1l-.3-.1-.4-.3-6-4.2-1.7-1.3c-.3-.1-.5-.3-.6-.5l.6.4 1.9 1.2 6 4 .4.4h-.3c.7-1.8 1.1-3.8 1.3-5.7v-.4l.2.3c.5.7 1.2 1.3 2 1.8l.8.5ZM82.9 139.7c-.7 1-1.4 1.7-2.2 2.5l-.1.1h-.2a15.2 15.2 0 0 0-2.3-2.3l-.4-.3-.1.1-.7 1.6-.6 1.5c0-.5.2-1 .4-1.6a193.9 193.9 0 0 0 .8-1.9.4.4 0 0 1 .4 0l.4.4.9.7 1.5 1.5h-.3l2.5-2.3Z"/>
  <path fill="#455A64" d="M80.2 213.1a28 28 0 1 1 10.3 55 28 28 0 0 1-10.3-55Zm10 53.1a26 26 0 1 0-9.7-51.2 26 26 0 0 0 9.7 51.2Z"/>
  <path fill="#455A64" d="M85.3 270a29.4 29.4 0 1 1 0-59 29.4 29.4 0 0 1 0 59Zm0-54.2a24.7 24.7 0 1 0 0 49.5 24.7 24.7 0 0 0 0-49.5Z"/>
  <path fill="#455A64" d="m17.3 213.3.3-.6c.5-1.3 1.7-2 2.6-1.7L61 227.6c.2.1.3.4.2.7l-1.8 4.3c0 .3-.3.4-.5.4L18 216.3c-.9-.4-1.2-1.7-.7-3Z"/>
  <path fill="#FFBE9D" d="m55.5 166.2-5 16.3 2.5 33.1-7.2 1s-8.3-28.3-7.5-33.4c.8-5 4.2-20 4.2-20l13 3Z"/>
  <path fill="#FFBE9D" d="m53 215.4 3.4 5.7 2.1 5.4-3.2-1.2s-1.3 6.5-1.8 6.7c-.6.2-2.1-.4-2-1.6a2 2 0 0 1-1.7.6c-1-.2-1.2-.9-1-2 0 0-1.2.8-1.8.3a2 2 0 0 1-.6-1.6s-1.5.1-1.7-.6c-.2-1.2-.2-2.5 0-3.7 0-.9.8-4.2.8-4.2l.3-2.7 7.2-1.1Z"/>
  <path fill="#EB996E" d="m52.2 226.6-.5 1.9-.2 1.9c.3-.6.5-1.2.5-1.9.2-.6.3-1.2.2-1.9ZM49.3 225.9c-.3.4-.4 1-.5 1.4a4 4 0 0 0-.1 1.6c.2-.5.4-1 .4-1.5.2-.5.2-1 .2-1.5ZM46.8 225.2a4 4 0 0 0-.2 1.3l-.2 1.2c.3-.3.4-.7.5-1.2l-.1-1.3ZM55.6 223.4a7 7 0 0 0-.6 1.8c-.2.6-.3 1.3-.3 1.9a5 5 0 0 0 .6-1.8c.2-.6.3-1.2.3-1.9Z"/>
  <path fill="#F28500" d="M38 194.2c0-.6-2.4-8.3-1.7-12.3s9-31 10-33c1-1.3 2.2-2.3 3.6-3a13.5 13.5 0 0 1 6.5 8.3c1.7 5.9 1.7 13.3 1.7 13.3L51.5 184l.8 9.3-14.4.9Z"/>
  <path fill="#263238" d="M57.7 167c-.1 0 0-1.2 0-3.2a27.8 27.8 0 0 0-4.6-14.2c-1-1.7-1.8-2.6-1.8-2.6l.6.6 1.4 1.8a25.1 25.1 0 0 1 4.4 17.6ZM57.2 170.4a107.5 107.5 0 0 1-2.7 6.8l-2 4.8-1 2 .7-2.1c.4-1.3 1.2-3 2-4.8l2.1-4.7 1-2ZM51.9 184.6c-1.5-.8-3-1.4-4.6-2-1.6-.4-3.2-.7-4.9-.8.5-.1 1-.2 1.5-.1a14.6 14.6 0 0 1 6.8 2l1.2.9Z"/>
  <path fill="#fff" d="m95 231.1-12 10.4c-6.6 5.7-12 10.2-12 10.1l11.8-10.4C89.5 235.6 95 231 95 231.1ZM101.8 231.1l-10 8.8-10.2 8.6 10-8.8c5.6-4.8 10.1-8.7 10.2-8.6Z"/>
  <path fill="#263238" d="M111.9 240.6v-.4l-.1-1.3-.1-1-.2-1c0-.4 0-.9-.2-1.3l-.3-1.5a26.4 26.4 0 0 0-9.7-14.5l-1.1-.9-1.3-.7-1.2-.8-1.4-.6-.7-.4-.7-.2-1.5-.6-1.5-.4-1.6-.4c-1.1-.2-2.3-.3-3.4-.3l-1.7-.1h-1.7l-1 .1-.8.2-1.8.3a28 28 0 0 0-7 2.5l-1.6 1-.8.5-.8.6a24 24 0 0 0-5.6 5.6l-.6.8-.5.9-.5.9c-.2.2-.4.5-.5.9l-1 1.8-.6 2a26.1 26.1 0 0 0 0 16.6l.7 2 .9 1.8.2.5.3.4.5.9.5.9.6.8a30.3 30.3 0 0 0 5.6 5.5l.8.6.8.5 1.6 1a27.1 27.1 0 0 0 7 2.6l1.8.2.8.2h1l1.7.1h1.7a24.4 24.4 0 0 0 5-.8l1.5-.4 1.5-.5.7-.3.7-.3 1.3-.7 1.3-.8 1.2-.7 1.2-.9A26.3 26.3 0 0 0 111 247l.3-1.4.2-1.3.2-1v-1a42 42 0 0 0 .2-1.7V242.3l-.1 1-.2 1-.1 1.3-.4 1.5a26.5 26.5 0 0 1-9.7 14.7l-1 .8-1.3.8-1.3.8-1.4.6-.7.4-.7.3-1.5.5-1.6.4-1.6.4a24 24 0 0 1-3.4.4h-4.4l-.9-.2-1.8-.3a27.7 27.7 0 0 1-7-2.6l-1.7-1-.8-.5-.8-.6a29.4 29.4 0 0 1-5.6-5.6l-.6-.8-.6-1-.5-.8-.3-.5-.2-.4-1-2-.7-1.9a26.5 26.5 0 0 1 0-16.9l.7-2 1-1.8.5-1 .5-.8.5-.9.6-.8a30.4 30.4 0 0 1 5.7-5.7l.8-.6.8-.5 1.7-1a27.4 27.4 0 0 1 7-2.5l1.8-.3.9-.2h.9l1.8-.1h1.7a23.8 23.8 0 0 1 5 .8l1.6.5 1.5.5.7.3.7.3 1.3.7 1.3.8 1.3.7 1.1.9a26.5 26.5 0 0 1 9.7 14.7l.3 1.5.2 1.2.1 1.2v.9l.1 1.3v.4Z"/>
  <path fill="#263238" d="m102 254.7.8-1a24.7 24.7 0 0 0 4.8-11.9 23.3 23.3 0 0 0-2.7-13.7l.1.2.5.7 1.2 2.8a22.5 22.5 0 0 1-3.8 22l-.6.7-.2.2ZM100.7 257.1l-.5.5-.6.1s.1-.3.4-.4c.4-.2.6-.3.7-.2Z"/>
  <path fill="#fff" d="m65.9 252-.2-.4-.4-1a26 26 0 0 1 8-29.3l.8-.5c.1-.2.3-.2.3-.2l-1 .9a27.7 27.7 0 0 0-8.5 13.4 26.6 26.6 0 0 0 .6 15.7l.4 1.3ZM81.6 218.9c-1 .3-2.1.4-3.2.2.5-.2 1-.3 1.6-.3h1.6Z"/>
</svg>
